<?xml version="1.0" standalone="no"?>
<!DOCTYPE svg PUBLIC "-//W3C//DTD SVG 20010904//EN"
 "http://www.w3.org/TR/2001/REC-SVG-20010904/DTD/svg10.dtd">
<svg version="1.0" xmlns="http://www.w3.org/2000/svg"
 width="194.000000pt" height="194.000000pt" viewBox="0 0 194.000000 194.000000"
 preserveAspectRatio="xMidYMid meet">
<metadata>
Created by potrace 1.11, written by Peter Selinger 2001-2013
</metadata>
<g transform="translate(0.000000,194.000000) scale(0.100000,-0.100000)"
fill="#000000" stroke="none">
<path d="M338 1835 c-2 -2 -21 -5 -43 -7 -47 -6 -119 -38 -156 -70 -32 -28
-76 -96 -81 -123 -2 -11 -7 -23 -11 -26 -14 -10 -16 -121 -4 -167 16 -61 73
-131 149 -182 135 -92 174 -127 282 -254 35 -42 120 -210 144 -286 27 -85 41
-159 57 -320 17 -159 81 -251 204 -295 24 -8 65 -15 90 -15 55 0 147 25 158
43 4 7 17 17 28 23 23 13 75 76 79 95 2 8 8 27 15 43 6 16 9 44 5 62 -4 21 -2
34 4 34 6 0 13 24 17 53 3 28 8 70 11 92 19 159 100 358 194 479 41 53 121
133 173 173 32 25 54 49 51 55 -4 7 -2 8 5 4 22 -14 117 58 158 119 132 196
-28 472 -271 467 -58 -2 -115 -24 -227 -90 l-98 -57 -1 -290 c-1 -159 -3 -300
-6 -313 -14 -74 -84 -161 -160 -198 -57 -28 -149 -37 -206 -21 -23 6 -28 4
-29 -10 0 -15 -2 -14 -9 4 -5 12 -17 24 -27 27 -29 9 -101 82 -122 124 -20 40
-36 99 -32 120 1 8 -2 19 -7 25 -19 23 -24 57 -10 57 10 0 14 15 14 55 -1 37
-5 55 -13 55 -17 0 -17 19 0 26 9 3 12 45 12 171 0 153 -2 167 -20 177 -10 6
-42 25 -69 42 -85 52 -154 84 -201 93 -24 5 -46 7 -47 6z m174 -140 c2 -25 -1
-31 -19 -33 -13 -2 -23 1 -23 7 0 6 5 11 11 11 6 0 9 7 5 15 -7 19 4 49 15 38
4 -4 9 -21 11 -38z m-145 6 c0 -11 -5 -18 -9 -15 -4 3 -5 11 -1 19 7 21 12 19
10 -4z m1243 -110 c0 -5 3 -17 7 -27 4 -12 3 -15 -6 -10 -7 4 -20 -2 -31 -16
l-19 -23 -1 23 c0 12 4 22 9 22 5 0 13 9 16 20 6 20 25 28 25 11z m-1110 -15
c0 -3 -4 -8 -10 -11 -5 -3 -10 -1 -10 4 0 6 5 11 10 11 6 0 10 -2 10 -4z
m1130 -46 c0 -5 -7 -10 -16 -10 -8 0 -12 5 -9 10 3 6 10 10 16 10 5 0 9 -4 9
-10z m-84 -22 c4 -7 4 -10 0 -6 -5 4 -19 3 -32 -2 -23 -9 -32 -1 -17 13 11 11
41 8 49 -5z m-1436 -28 c0 -5 -5 -10 -11 -10 -5 0 -7 5 -4 10 3 6 8 10 11 10
2 0 4 -4 4 -10z m1370 6 c0 -3 -4 -8 -10 -11 -5 -3 -10 -1 -10 4 0 6 5 11 10
11 6 0 10 -2 10 -4z m-1023 -35 c-3 -16 -1 -33 6 -40 9 -10 8 -11 -5 -6 -22 9
-30 32 -18 56 15 28 23 23 17 -10z m958 19 c-3 -5 -10 -10 -16 -10 -5 0 -9 5
-9 10 0 6 7 10 16 10 8 0 12 -4 9 -10z m-1258 -47 c-3 -2 -13 -3 -23 -1 -16 3
-16 4 2 22 18 18 19 18 22 2 2 -10 1 -20 -1 -23z m83 -23 c0 -10 -39 -24 -46
-17 -2 2 -2 11 1 19 6 16 45 13 45 -2z m329 -21 c-16 -10 -23 -4 -14 10 3 6
11 8 17 5 6 -4 5 -9 -3 -15z m89 3 c2 -7 -1 -12 -6 -12 -18 0 -42 12 -42 21 0
13 43 4 48 -9z m-368 -35 c0 -7 -9 -13 -20 -13 -23 0 -24 2 -7 20 13 15 27 11
27 -7z m17 1 c-3 -8 -6 -5 -6 6 -1 11 2 17 5 13 3 -3 4 -12 1 -19z m44 -17 c7
11 9 11 9 -3 0 -13 -8 -18 -27 -17 -16 0 -22 3 -15 6 6 2 13 12 13 21 1 14 2
13 6 -2 4 -15 7 -16 14 -5z m16 -51 c-2 -11 -9 -26 -16 -33 -10 -10 -10 -7 -2
14 5 15 7 30 4 33 -4 3 -1 6 5 6 7 0 10 -9 9 -20z m123 -85 c-12 -15 -30 -12
-30 6 0 5 10 9 21 9 18 0 19 -2 9 -15z m93 -49 c3 -8 -1 -20 -9 -26 -12 -10
-14 -8 -14 14 0 28 14 35 23 12z m151 -295 c3 -5 -1 -11 -9 -15 -9 -3 -15 0
-15 9 0 16 16 20 24 6z m53 -26 c0 -8 -4 -15 -8 -15 -4 0 -9 7 -13 15 -3 9 0
15 8 15 7 0 13 -7 13 -15z m143 -45 c0 -5 -4 -10 -10 -10 -5 0 -10 5 -10 10 0
6 5 10 10 10 6 0 10 -4 10 -10z m40 -39 c0 -6 -4 -13 -10 -16 -5 -3 -10 1 -10
9 0 9 5 16 10 16 6 0 10 -4 10 -9z m-90 -15 c0 -3 -4 -8 -10 -11 -5 -3 -10 -1
-10 4 0 6 5 11 10 11 6 0 10 -2 10 -4z m165 -46 c-3 -5 -14 -6 -26 -3 -15 4
-17 8 -8 13 15 10 41 1 34 -10z m-155 -21 c0 -5 -7 -9 -15 -9 -15 0 -20 12 -9
23 8 8 24 -1 24 -14z m147 -14 c0 -8 -4 -15 -9 -15 -4 0 -8 7 -8 15 0 8 4 15
8 15 5 0 9 -7 9 -15z m43 -5 c0 -5 -4 -10 -9 -10 -6 0 -13 5 -16 10 -3 6 1 10
9 10 9 0 16 -4 16 -10z m25 -40 c10 -11 13 -20 7 -20 -7 0 -12 5 -12 10 0 6
-6 10 -14 10 -8 0 -18 5 -21 10 -11 18 22 10 40 -10z m-153 -12 c-7 -7 -12 -8
-12 -2 0 14 12 26 19 19 2 -3 -1 -11 -7 -17z m223 -45 c-26 -18 -32 -7 -9 18
12 14 20 17 23 8 2 -7 -4 -18 -14 -26z m-60 7 c3 -5 2 -10 -4 -10 -5 0 -13 5
-16 10 -3 6 -2 10 4 10 5 0 13 -4 16 -10z m-115 -30 c0 -5 -8 -10 -17 -10 -15
0 -16 2 -3 10 19 12 20 12 20 0z m195 -31 c-6 -16 -9 -18 -16 -8 -4 8 -3 19 3
26 15 18 21 9 13 -18z m-125 2 c0 -6 -4 -13 -10 -16 -5 -3 -10 1 -10 9 0 9 5
16 10 16 6 0 10 -4 10 -9z m100 -11 c0 -5 -7 -10 -16 -10 -8 0 -12 5 -9 10 3
6 10 10 16 10 5 0 9 -4 9 -10z m60 -34 c0 -3 -4 -8 -10 -11 -5 -3 -10 -1 -10
4 0 6 5 11 10 11 6 0 10 -2 10 -4z m30 -13 c0 -16 -16 -30 -32 -30 -19 0 -14
12 5 12 7 1 11 6 10 13 -2 7 2 12 7 12 6 0 10 -3 10 -7z"/>
<path d="M892 1662 c-15 -7 -31 -20 -35 -28 -5 -8 -12 -12 -17 -9 -5 3 -21
-16 -37 -42 l-27 -47 -1 -206 c-1 -113 2 -218 7 -234 21 -79 108 -146 189
-146 51 0 115 27 146 61 47 52 53 84 53 309 0 228 -5 254 -62 307 -54 51 -155
67 -216 35z m-37 -62 c-3 -5 -12 -10 -18 -10 -7 0 -6 4 3 10 19 12 23 12 15 0z"/>
</g>
</svg>
