<?xml version="1.0" encoding="iso-8859-1"?><!-- Generator: Adobe Illustrator 16.0.0, SVG Export Plug-In . SVG Version: 6.00 Build 0) --><!DOCTYPE svg PUBLIC "-//W3C//DTD SVG 1.1//EN" "http://www.w3.org/Graphics/SVG/1.1/DTD/svg11.dtd"><svg version="1.1" id="svg21775" inkscape:export-ydpi="184.19029" inkscape:export-xdpi="184.19029" inkscape:export-filename="/home/chromakode/Documents/code/reddit/reddit-about/reddit_about/public/static/about/assets/reddit-alien.png" inkscape:version="0.48.3.1 r9886" sodipodi:docname="reddit-alien.svg" xmlns:rdf="http://www.w3.org/1999/02/22-rdf-syntax-ns#" xmlns:sodipodi="http://sodipodi.sourceforge.net/DTD/sodipodi-0.dtd" xmlns:dc="http://purl.org/dc/elements/1.1/" xmlns:inkscape="http://www.inkscape.org/namespaces/inkscape" xmlns:svg="http://www.w3.org/2000/svg" xmlns:cc="http://creativecommons.org/ns#" xmlns="http://www.w3.org/2000/svg" xmlns:xlink="http://www.w3.org/1999/xlink" x="0px" y="0px" width="347.263px" height="487.256px" viewBox="6.371 6.372 347.263 487.256" style="enable-background:new 6.371 6.372 347.263 487.256;" xml:space="preserve"><sodipodi:namedview id="namedview21835" inkscape:window-y="64" inkscape:window-width="1261" fit-margin-bottom="0" inkscape:pageshadow="2" fit-margin-right="0" inkscape:window-maximized="0" inkscape:window-x="1950" inkscape:window-height="900" inkscape:pageopacity="0" inkscape:current-layer="svg21775" fit-margin-left="0" objecttolerance="10" bordercolor="#666666" guidetolerance="10" inkscape:cx="178.3494" showgrid="false" borderopacity="1" pagecolor="#ffffff" inkscape:cy="235.80988" inkscape:zoom="1" gridtolerance="10" fit-margin-top="0"></sodipodi:namedview><g id="Layer_2" transform="matrix(12.584949,0,0,12.584949,-584.34433,-1.3717583)"><ellipse id="ellipse21778" sodipodi:rx="4.4109998" sodipodi:cy="28.417999" sodipodi:cx="65.245003" sodipodi:ry="5.3239999" style="fill:#FFFFFF;stroke:#000000;stroke-width:1.1;" cx="65.245" cy="28.418" rx="4.411" ry="5.324"></ellipse><g id="g21780"><g id="g21782"><path id="path21784" inkscape:connector-curvature="0" style="fill:#FFFFFF;" d="M58.303,39.285	c0.063-0.197,0.108-0.4,0.108-0.615c0-1.359-1.361-2.463-3.04-2.463c-1.679,0-3.039,1.104-3.039,2.463	c0,0.215,0.044,0.418,0.108,0.615H58.303z"/></g><g id="g21786"><path id="path21788" inkscape:connector-curvature="0" style="fill:none;stroke:#000000;stroke-width:1.1;stroke-linecap:round;stroke-linejoin:round;" d="	M58.303,39.285c0.063-0.197,0.108-0.4,0.108-0.615c0-1.359-1.361-2.463-3.04-2.463c-1.679,0-3.039,1.104-3.039,2.463	c0,0.215,0.044,0.418,0.108,0.615H58.303z"/></g></g><g id="g21790"><g id="g21792"><path id="path21794" inkscape:connector-curvature="0" style="fill:#FFFFFF;" d="M68.949,39.285	c0.062-0.197,0.107-0.4,0.107-0.615c0-1.359-1.361-2.463-3.041-2.463c-1.679,0-3.039,1.104-3.039,2.463	c0,0.215,0.043,0.418,0.107,0.615H68.949z"/></g><g id="g21796"><path id="path21798" inkscape:connector-curvature="0" style="fill:none;stroke:#000000;stroke-width:1.1;stroke-linecap:round;stroke-linejoin:round;" d="	M68.949,39.285c0.062-0.197,0.107-0.4,0.107-0.615c0-1.359-1.361-2.463-3.041-2.463c-1.679,0-3.039,1.104-3.039,2.463	c0,0.215,0.043,0.418,0.107,0.615H68.949z"/></g></g><circle id="circle21800" sodipodi:rx="2.7019999" sodipodi:cy="11.836" sodipodi:cx="49.683998" sodipodi:ry="2.7019999" style="fill:#FFFFFF;stroke:#000000;stroke-width:1.1;" cx="49.684" cy="11.836" r="2.702"></circle><circle id="circle21802" sodipodi:rx="2.7019999" sodipodi:cy="11.836" sodipodi:cx="71.786003" sodipodi:ry="2.7019999" style="fill:#FFFFFF;stroke:#000000;stroke-width:1.1;" cx="71.786" cy="11.836" r="2.702"></circle><path id="path21804" inkscape:connector-curvature="0" style="fill:none;stroke:#000000;stroke-width:1.1;stroke-linecap:round;stroke-linejoin:round;" d="	M68.226,2.352c0,0,0,0-5.404-1.272l-1.986,6.278"/><ellipse id="ellipse21806" sodipodi:rx="4.4109998" sodipodi:cy="28.417999" sodipodi:cx="56.146" sodipodi:ry="5.3239999" style="fill:#FFFFFF;stroke:#000000;stroke-width:1.1;" cx="56.146" cy="28.418" rx="4.411" ry="5.324"></ellipse><circle id="circle21808" sodipodi:rx="2.1300001" sodipodi:cy="2.789" sodipodi:cx="70.431" sodipodi:ry="2.1300001" style="fill:#FFFFFF;stroke:#000000;stroke-width:1.1;" cx="70.431" cy="2.789" r="2.13"></circle><g id="g21810"><g id="g21812"><path id="path21814" inkscape:connector-curvature="0" style="fill:#FFFFFF;" d="M59.181,39.289h2.99	c2.655-1.383,4.624-6.34,4.624-12.262c0-6.99-2.74-12.655-6.119-12.655c-3.38,0-6.119,5.666-6.119,12.655	C54.557,32.949,56.525,37.906,59.181,39.289z"/></g><g id="g21816"><path id="path21818" inkscape:connector-curvature="0" style="fill:none;stroke:#000000;stroke-width:1.1;" d="M59.181,39.289	h2.99c2.655-1.383,4.624-6.34,4.624-12.262c0-6.99-2.74-12.655-6.119-12.655c-3.38,0-6.119,5.666-6.119,12.655	C54.557,32.949,56.525,37.906,59.181,39.289z"/></g></g><ellipse id="ellipse21820" sodipodi:rx="12.238" sodipodi:cy="15.552" sodipodi:cx="60.675999" sodipodi:ry="7.987" style="fill:#FFFFFF;stroke:#000000;stroke-width:1.1;" cx="60.676" cy="15.552" rx="12.238" ry="7.987"></ellipse><line id="line21822" style="fill:none;stroke:#000000;stroke-width:1.1;stroke-linecap:round;stroke-linejoin:round;" x1="57.457" y1="39.285" x2="64.053" y2="39.285"/><g id="g21824"><path id="circle21826" inkscape:connector-curvature="0" style="fill:#FF4500;" d="M56.437,12.001	c-1.087,0-1.999,0.912-1.999,1.999c0,1.087,0.912,1.969,1.999,1.969s1.969-0.882,1.969-1.969	C58.406,12.913,57.524,12.001,56.437,12.001z"/><path id="circle21828" inkscape:connector-curvature="0" style="fill:#FF4500;" d="M65.063,12.001	c-1.088,0-2.001,0.911-2.001,1.999c0,1.088,0.914,1.969,2.001,1.969c1.088,0,1.969-0.882,1.969-1.969	C67.032,12.912,66.151,12.001,65.063,12.001z"/><path id="path21830" inkscape:connector-curvature="0" style="fill:none;stroke:#000000;stroke-width:1.1;stroke-linecap:round;" d="	M56.507,19.229c1.066,1.066,2.786,1.271,4.212,1.271"/><path id="path21832" inkscape:connector-curvature="0" style="fill:none;stroke:#000000;stroke-width:1.1;stroke-linecap:round;" d="	M64.963,19.229c-1.067,1.066-2.786,1.271-4.213,1.271"/></g></g><g id="Layer_3" transform="translate(-56.49872,470.00082)"></g></svg>